<svg width="85" height="85" viewBox="0 0 85 85" fill="none" xmlns="http://www.w3.org/2000/svg">
<g clip-path="url(#clip0_5_27)">
<path fill-rule="evenodd" clip-rule="evenodd" d="M42.5 85C65.9721 85 85 65.9721 85 42.5C85 19.0279 65.9721 0 42.5 0C19.0279 0 0 19.0279 0 42.5C0 62.2317 13.4467 78.8228 31.6764 83.6094C31.5712 83.2449 31.5731 82.8552 31.6842 82.4893L38.5276 59.8103H25.901C25.6056 59.8105 25.3143 59.7404 25.0501 59.6057C24.7859 59.471 24.5562 59.2753 24.3791 59.0342C24.2021 58.7931 24.0826 58.5132 24.0302 58.2168C23.9777 57.9204 23.9938 57.6156 24.0771 57.3266L33.5765 24.391C33.6923 23.9893 33.9326 23.6367 34.2614 23.3859C34.5902 23.1352 34.9898 22.9998 35.4004 23H50.5994C50.9003 23.0002 51.1968 23.0733 51.4646 23.2133C51.7323 23.3532 51.9637 23.556 52.1395 23.805C52.3154 24.0539 52.4307 24.3419 52.4761 24.6452C52.5215 24.9485 52.4956 25.2585 52.4005 25.5496L45.6369 46.2486H60.0988C60.4546 46.2484 60.8033 46.35 61.1052 46.5419C61.4071 46.7339 61.6501 47.0084 61.8066 47.3343C61.963 47.6601 62.0265 48.0242 61.9899 48.3851C61.9534 48.746 61.8182 49.0892 61.5997 49.3756L35.0014 84.2485C34.9805 84.276 34.959 84.3028 34.9368 84.329C37.3912 84.7699 39.9187 85 42.5 85Z" fill="#1E1E1E"/>
</g>
<defs>
<clipPath id="clip0_5_27">
<rect width="85" height="85" fill="white"/>
</clipPath>
</defs>
</svg>
