<svg width="85" height="85" viewBox="0 0 85 85" fill="none" xmlns="http://www.w3.org/2000/svg">
<path d="M67.1938 65C63.532 65 60.4335 64.5457 57.8984 63.637C55.4035 62.6905 53.3714 61.4601 51.8021 59.9457C50.2729 58.4313 49.1261 56.7844 48.3616 55.0049C47.6372 53.1877 47.2147 51.4082 47.094 49.6667H56.5101C56.5906 51.0296 57.0332 52.3358 57.838 53.5852C58.6428 54.8346 59.85 55.8568 61.4596 56.6519C63.0692 57.4469 65.0812 57.8444 67.4956 57.8444C70.1112 57.8444 72.0427 57.3523 73.2901 56.3679C74.5778 55.3457 75.2217 54.0206 75.2217 52.3926C75.2217 50.8403 74.6583 49.572 73.5316 48.5877C72.4451 47.6033 70.9965 46.8272 69.1857 46.2593L62.365 44.1012C60.1921 43.4198 58.0996 42.5868 56.0876 41.6025C54.1159 40.5802 52.4861 39.2551 51.1985 37.6272C49.9108 35.9613 49.2669 33.8412 49.2669 31.2667C49.2669 28.6165 49.9711 26.3827 51.3795 24.5654C52.8282 22.7481 54.7999 21.3663 57.2948 20.4198C59.8299 19.4733 62.7272 19 65.9866 19C70.1716 19 73.4712 19.6626 75.8856 20.9877C78.3 22.3128 80.0505 23.9975 81.1369 26.042C82.2636 28.0486 82.9477 30.1498 83.1892 32.3457H73.773C73.6925 31.2856 73.3706 30.2823 72.8073 29.3358C72.2842 28.3514 71.4391 27.5564 70.2722 26.9506C69.1052 26.3449 67.5359 26.042 65.5641 26.042C63.3509 26.042 61.7011 26.4774 60.6146 27.3481C59.5684 28.2189 59.0452 29.3169 59.0452 30.642C59.0452 32.0807 59.5885 33.2354 60.675 34.1062C61.8017 34.977 63.2905 35.7152 65.1416 36.321L71.9622 38.479C74.1754 39.1605 76.2679 40.0123 78.2397 41.0346C80.2114 42.0568 81.821 43.4198 83.0684 45.1235C84.3561 46.7893 85 48.9852 85 51.7111C85 55.8379 83.4306 59.0938 80.2919 61.479C77.1934 63.8263 72.8274 65 67.1938 65Z" fill="#1B2D2A"/>
<path d="M0 64.1484V19.8521H17.5043L32.1114 56.6521H33.5601V19.8521H42.7347V64.1484H25.1097L10.563 27.3483H9.17469V64.1484H0Z" fill="#1B2D2A"/>
</svg>
